<?xml version="1.0" standalone="no"?>
<!DOCTYPE svg PUBLIC "-//W3C//DTD SVG 20010904//EN"
 "http://www.w3.org/TR/2001/REC-SVG-20010904/DTD/svg10.dtd">
<svg version="1.0" xmlns="http://www.w3.org/2000/svg"
 width="730.000000pt" height="730.000000pt" viewBox="0 0 730.000000 730.000000"
 preserveAspectRatio="xMidYMid meet">

<g transform="translate(0.000000,730.000000) scale(0.100000,-0.100000)"
fill="#000000" stroke="none">
<path d="M2551 6589 c-374 -42 -754 -201 -990 -415 -58 -53 -104 -107 -348
-408 -144 -178 -219 -323 -269 -526 -26 -104 -54 -304 -54 -379 l0 -49 -56
-27 c-77 -38 -200 -132 -268 -206 -249 -269 -399 -669 -446 -1198 -16 -173 -7
-623 15 -781 24 -173 61 -326 91 -378 36 -61 307 -332 469 -468 768 -646 1634
-1034 2518 -1129 141 -15 426 -30 797 -41 212 -7 599 8 830 32 753 77 1298
265 1662 571 286 241 462 630 393 869 -32 110 -83 192 -180 289 -49 50 -111
104 -137 120 -60 38 -62 60 -8 108 45 41 111 76 190 102 147 47 281 148 329
249 32 66 39 164 16 241 -37 130 -120 256 -281 426 -59 63 -131 138 -158 168
-32 33 -46 55 -39 58 45 17 181 118 249 187 130 130 222 289 259 448 42 185
54 558 21 682 -45 170 -118 296 -238 412 -148 144 -222 178 -808 375 -441 148
-457 154 -510 200 -168 144 -390 250 -635 305 -118 26 -427 24 -585 -4 -205
-37 -383 -106 -479 -186 -32 -27 -52 -36 -79 -36 -52 0 -112 18 -119 36 -18
47 -324 213 -518 281 -194 68 -432 95 -634 72z m1644 -1094 c147 -22 238 -50
355 -107 93 -46 116 -63 200 -147 100 -101 140 -162 181 -281 29 -84 32 -270
6 -370 -75 -285 -299 -454 -662 -499 -352 -43 -806 28 -1109 173 -164 79 -232
133 -479 380 -218 217 -236 233 -302 260 -38 16 -103 47 -143 69 l-74 39 29
19 c57 39 137 61 248 69 124 9 155 19 385 122 368 165 595 237 855 272 138 19
388 19 510 1z m2115 -96 c387 -46 651 -192 794 -440 l26 -46 -10 -169 c-16
-240 -14 -235 -110 -327 -130 -123 -324 -209 -540 -237 -274 -35 -607 22 -974
167 -163 64 -197 84 -257 150 -95 106 -136 228 -146 433 -6 144 2 186 50 256
58 83 155 136 308 168 283 58 607 75 859 45z m-229 -3070 c185 -136 283 -226
341 -314 52 -80 51 -120 -7 -152 -58 -33 -438 -156 -605 -197 -413 -101 -828
-122 -1220 -62 -539 82 -704 109 -780 127 -193 48 -498 175 -754 316 l-129 71
52 16 c138 41 359 45 541 11 47 -9 146 -36 220 -61 132 -44 192 -71 530 -245
234 -121 484 -199 634 -199 141 1 294 63 405 166 76 70 111 130 111 187 0 75
-78 222 -166 318 -55 57 -75 49 191 79 105 12 244 29 310 40 66 10 129 18 141
19 11 1 91 -51 185 -120z"/>
<path d="M3855 5246 c-169 -43 -297 -167 -339 -331 -101 -386 295 -709 654
-533 178 87 283 291 250 485 -45 269 -306 444 -565 379z m262 -396 c93 -56 74
-195 -31 -230 -89 -29 -188 70 -155 157 31 83 116 116 186 73z"/>
<path d="M6103 5295 c-223 -49 -376 -254 -360 -484 16 -235 193 -412 428 -428
241 -17 449 148 489 388 41 239 -119 474 -357 524 -82 18 -119 18 -200 0z
m253 -474 c20 -12 38 -35 48 -63 22 -58 6 -112 -43 -145 -81 -55 -187 -8 -198
87 -11 105 103 176 193 121z"/>
</g>
</svg>
